<?xml version="1.0" encoding="utf-8"?>
<!-- Generator: Adobe Illustrator 19.0.0, SVG Export Plug-In . SVG Version: 6.00 Build 0)  -->
<svg version="1.1" id="Layer_1" xmlns="http://www.w3.org/2000/svg" xmlns:xlink="http://www.w3.org/1999/xlink" x="0px" y="0px"
	 viewBox="0 0 500 500" style="enable-background:new 0 0 500 500;" xml:space="preserve">
<style type="text/css">
	.st0{fill:#ED1C24;}
	.st1{fill:#2744A0;}
</style>
<g id="XMLID_1_">
	<path id="XMLID_3_" class="st0" d="M275.2,184.2l-29.9,20.4c64.8,1.9,108.8-18.8,108.8-18.8c-46.9,22.8-96.5,24.9-117.3,24.6
		l-35.7,24.3c0,0,111.5-2.8,182.5-71.3C383.6,163.5,339.7,196,275.2,184.2"/>
	<path id="XMLID_4_" class="st1" d="M409.4,234.3h-2.9c0,0,1.3,2-0.5,4.7l-24.7,33.6l3-32c0.6-4.1,3.8-6.3,3.8-6.3h-10.5v0h-26.6
		l-28.2,38.3l3-31.8l0-0.1c0.6-4.2,3.8-6.4,3.8-6.4h-3.3v0l-33.9,0v0c-1.8-0.1-86.7-4-99.4,18.6c5.2-10.5,8.8-18.2,9-18.5h-61.6
		c0.7,0.2,4.1,2,2.9,5.2v0c-3.2,11-11,36.3-19.8,55.1c-11.4,24.6-37.2,33.6-54.9,39.9c-1.6,0.6-1.4,1.8,0.3,1.8
		c43.5,0.3,79.3-3.2,106.3-50c6.3-10.9,12.4-22.7,17.2-32.4c-0.3,0.7-0.6,1.5-0.7,2.2c-5.6,25.3,41.7,26.9,41,32.9
		c-0.6,5.3-28.7,3.7-47.3-2.4l-0.3-0.1c-3.5-1.2-5.1-3.3-5.1-3.3l0.2,1.4l0,0c0,0,0,0.1,0,0.2l0.7,6.7c0.7,7.1,1.7,17.1,1.7,17.1
		s98.3,12.4,100.1-19.5c1.4-24.2-46-27.1-45.5-32.4c0.5-5,23.5-5.6,37.5-3.5l0.1,0c6.3,1,7.1,4.4,7.1,4.4l1-2.4l0,0
		c0-0.1,8.5-19.4,9.2-21.1l-6.3,67.8v0c-0.6,4.2-3.8,6.4-3.8,6.4h6.6l30.5,0l28.2-38.4l-3,32c-0.6,4.1-3.8,6.4-3.8,6.4h3.2v0l33.9,0
		l54.7-74.3L409.4,234.3"/>
</g>
</svg>
